<?xml version="1.0" encoding="utf-8"?>
<!-- Generator: Adobe Illustrator 23.0.1, SVG Export Plug-In . SVG Version: 6.00 Build 0)  -->
<svg version="1.1" id="tribe29_cmk" xmlns="http://www.w3.org/2000/svg" xmlns:xlink="http://www.w3.org/1999/xlink" x="0px"
	 y="0px" width="120px" height="50px" viewBox="0 0 120 50" style="enable-background:new 0 0 120 50;" xml:space="preserve">
<style type="text/css">
	.st0{clip-path:url(#SVGID_2_);}
	.st1{clip-path:url(#SVGID_4_);fill:#13D389;}
	.st2{enable-background:new    ;}
	.st3{fill:#FFFFFF;}
</style>
<g>
	<g>
		<g>
			<g>
				<g>
					<g>
						<defs>
							<path id="SVGID_1_" d="M6.7,19.7v6.5l7.9-5.1v13.3l3.1,1.8l3.1-1.8V21.1l7.9,5.1v-6.5l-11-6.9L6.7,19.7z M17.8,5.5l16.8,9.7
								v19.5l-16.8,9.7L1,34.8V15.3L17.8,5.5z"/>
						</defs>
						<clipPath id="SVGID_2_">
							<use xlink:href="#SVGID_1_"  style="overflow:visible;"/>
						</clipPath>
						<g class="st0">
							<g>
								<g>
									<g>
										<g>
											<g>
												<defs>
													<rect id="SVGID_3_" x="-35.7" y="-78.4" width="376.4" height="211.7"/>
												</defs>
												<clipPath id="SVGID_4_">
													<use xlink:href="#SVGID_3_"  style="overflow:visible;"/>
												</clipPath>
												<rect y="4.6" class="st1" width="35.6" height="40.9"/>
											</g>
										</g>
									</g>
								</g>
							</g>
						</g>
					</g>
				</g>
			</g>
		</g>
	</g>
</g>
<g>
	<g class="st2">
		<path class="st3" d="M43.3,28.4v-7.8h-2.4v-1.1h2.4l0.1-3.5h1.2v3.5h3.5v1.1h-3.5v7.8c0,1.9,0.5,2.5,2.1,2.5h1.5v1.2h-1.8
			C44.3,32.2,43.3,31.1,43.3,28.4z"/>
		<path class="st3" d="M51,19.5h1.2v2.6c0.7-2,2-2.8,3.9-2.8H57v1.3h-0.7c-2.1,0-3.4,1.2-3.9,3.9v7.7H51V19.5z"/>
		<path class="st3" d="M59.5,14.9H61V17h-1.5V14.9z M59.6,19.5H61v12.6h-1.4V19.5z"/>
		<path class="st3" d="M66.6,29.7v2.5h-1.2v-18h1.4v7.7c1.1-1.7,2.7-2.6,4.6-2.6c2.9,0,4.6,1.9,4.6,5.2v2.8c0,3.4-1.7,5.2-4.6,5.2
			C69.4,32.5,67.8,31.5,66.6,29.7z M74.6,27.2v-2.7c0-2.6-1.2-4.1-3.4-4.1c-2,0-3.5,1.2-4.5,3.4v4.1c1,2.2,2.5,3.4,4.5,3.4
			C73.4,31.3,74.6,29.8,74.6,27.2z"/>
		<path class="st3" d="M79.1,27.1v-2.5c0-3.5,1.9-5.4,5.2-5.4c3.4,0,5.2,1.9,5.2,5.4v1.6h-9.1V27c0,2.9,1.3,4.2,3.9,4.2
			c2.3,0,3.6-1,3.7-2.8h1.3c-0.2,2.6-2,4-5,4C81,32.5,79.1,30.6,79.1,27.1z M88.2,25v-0.3c0-2.9-1.3-4.2-3.9-4.2s-3.9,1.4-3.9,4.2
			V25H88.2z"/>
	</g>
	<g class="st2">
		<path class="st3" d="M92.8,30.7c0-3.2,1.5-5,5.3-6.8c2.7-1.3,3.7-2.2,3.7-3.8c0-1.5-0.9-2.4-2.8-2.4c-2,0-3,1-3,2.9V21h-3v-0.7
			c0-3.4,2.1-5.2,5.9-5.2s5.8,1.9,5.8,4.9c0,2.7-1.4,4.4-5.1,6.1c-2.7,1.2-3.7,2-3.8,3.4h8.9v2.6H92.8V30.7z"/>
		<path class="st3" d="M107.6,27.8h2.9c0.1,1.3,1,2.1,2.8,2.1c2.1,0,3.1-1.1,3.1-3.3v-2c-1,1.1-2.3,1.6-4,1.6c-3.2,0-5-1.9-5-5.4
			c0-3.7,2-5.7,5.9-5.7s6,1.9,6,5.7v5.9c0,3.8-2.1,5.8-6.1,5.8C109.6,32.5,107.7,30.8,107.6,27.8z M116.4,21.3v-0.4
			c0-2.1-1.1-3.2-3.1-3.2s-3,1.1-3,3s0.9,2.9,2.7,2.9C114.7,23.6,115.8,22.8,116.4,21.3z"/>
	</g>
</g>
</svg>
